<svg width="79" height="28" viewBox="0 6 310 90" xmlns="http://www.w3.org/2000/svg"><path d="M298.14 46.28c-4.715 0-7.611 2.024-9.726 3.5-1.048.733-1.876 1.312-2.712 1.45a1.855 1.855 0 01-.3.026c-.48 0-.919-.213-1.201-.584-.68-.893-.26-2.407.185-4.01.063-.23.225-.743.493-1.594l.012-.039c1.508-4.793 6.1-19.381 6.1-24.918 0-3.24-.675-5.415-2.125-6.848-1.582-1.564-4.216-2.324-8.053-2.324-1.516 0-2.75.484-3.668 1.438-2.356 2.448-2.164 7.492-2.024 11.174.032.844.062 1.64.056 2.292-.085 9.212-2.435 15.625-4.707 21.829l-.385 1.05-.266.43a106.26 106.26 0 01-3.844 3.057c-3.059 2.32-4.023 2.746-4.302 2.82-.051-.129-.102-.408-.016-.989.083-.554.252-1.14.365-1.529.091-.317.118-.413.118-.508 0-1.784-.253-2.942-.818-3.754-.686-.985-1.85-1.463-3.556-1.463-4.786 0-7.477 3.735-8.626 5.33l-.077.106c-.204.282-.452.668-.692 1.042-1.007 1.566-1.487 2.258-2.313 2.259-.362 0-.701-.163-.93-.446-.41-.505-.42-1.17-.04-2.964.097-.46.199-.884.297-1.293.386-1.613.534-2.417.218-2.818-.549-.695-2.767-1.048-6.595-1.048-3.335 0-5.819 1.137-7.382 3.38-1.368 1.96-1.654 4.288-1.704 5.5-.134 3.287-1.513 9.854-2.802 15.773l-.323.425c-2.452 2.5-8.849 8.266-15.652 8.266-4.477 0-7.294-2.1-8.869-3.863-1.881-2.105-2.738-4.533-2.738-5.899 0-.547.007-.903.106-1.22.192-.613.705-.979 1.372-.979.168 0 .334.02.53.044a8.047 8.047 0 001.619.053c.222-.014 5.495-.39 10.373-2.695 5.454-2.578 8.186-6.452 8.121-11.514-.037-2.927-.75-4.834-2.308-6.183-1.812-1.567-4.854-2.329-9.3-2.329-11.34 0-20.287 5.173-23.933 13.836l-.594 1.41-1.142-1.018c-4.079-3.64-5.794-7.722-6.222-8.886l-.028-.076-.016-.08c-.327-1.575-.948-2.713-1.9-3.48-.95-.766-2.201-1.138-3.826-1.138-.32 0-1.996.038-3.58.794-2.06.983-3.15 2.775-3.15 5.18 0 1.111 1.007 2.108 2.073 3.163 1.334 1.321 2.713 2.687 2.16 4.258-1.042 2.965-3.573 9.346-5.692 12.281-2.86 3.96-6.124 5.967-9.701 5.967a9.43 9.43 0 01-.315-.005c-1.782-.06-2.768-.93-3.28-1.65-1.022-1.436-1.272-3.753-.765-7.082.5-3.281 1.702-7.308 2.79-10.826.682-2.206 1.271-4.11 1.476-5.284.127-.73.272-1.42.4-2.034.414-1.972.644-3.209.186-3.773-.48-.592-2.056-.905-4.556-.905-7.405 0-10.094 7.897-10.558 9.48a183.36 183.36 0 01-1.168 3.78l-.008.027c-1.12 3.54-2.28 7.2-2.828 11.1l-.046.326-.217.246c-.326.369-8.08 9.036-16.381 9.036-3.626 0-6.463-.789-8.432-2.345-1.776-1.403-2.564-3.202-3.002-4.433-.154-.435-.148-.778-.109-1.003 1.335-.54 9.43-3.859 13.981-6.802 4.896-3.166 8.142-6.331 8.076-11.488-.037-2.928-.75-4.835-2.308-6.184-1.812-1.567-4.854-2.33-9.3-2.33-7.173 0-13.64 2.135-18.208 6.01-4.982 4.226-7.615 10.383-7.615 17.81l.036 3.344c-.224.194-.93.705-2.205 1.198-1.287.498-3.473 1.09-6.578 1.09-3.244 0-6.237-2.29-8.894-6.81-2.292-3.898-3.766-8.558-4.441-10.989-1.57-5.652-3.873-8.048-5.398-9.633a18.995 18.995 0 00-.533-.527c-.95-.918-1.546-1.56-1.164-2.09.177-.22 1.48-.753 2.741-1.268 3.475-1.422 9.29-3.8 14.291-7.868 6.105-4.966 9.201-11.034 9.201-18.035 0-3.732-.906-6.913-2.694-9.453-1.785-2.536-4.526-4.54-8.145-5.958C72.652.296 65.816 0 60.518 0c-4.236 0-19.146.353-33.146 4.889C10.04 10.505.843 20.179.038 33.639c-.248 4.15.73 7.425 2.906 9.736 2.204 2.341 5.563 3.579 9.713 3.579 4.524 0 9.267-2.013 12.377-5.253 2.124-2.213 2.903-4.414 3.183-5.87l.124-.646-.627.198c-1.236.392-2.397.59-3.45.59-2.456 0-4.23-1.026-5.269-3.05-.904-1.762-1.039-3.88-1.039-4.986 0-5.482 3.689-11.349 10.12-16.096 6.089-4.495 13.637-7.189 20.218-7.22-1.09 1.62-4.035 6.178-5.506 10.225-1.961 5.396-16.418 54.353-18.63 64.898-.773 3.681-.395 5.12.058 5.678.193.238.542.511 1.538.511.143 0 .293-.005.457-.016.18-.012.406-.018.687-.018.5 0 1.132.018 1.863.04h.01c.989.029 2.11.061 3.296.061 3.237 0 5.575-.267 6.949-.794 1.141-.438 1.302-.95 1.319-1.15.348-4.183 1.213-9.723 2.375-15.198.608-2.866 1.776-7.246 2.906-11.48l.002-.009c1.05-3.937 2.043-7.657 2.387-9.443.38-1.974 1.885-2.127 2.338-2.127 1.34 0 2.71 1.007 3.473 2.005 1.814 2.373 3.895 6.615 3.503 13.35-.308 5.316-.075 15.03 4.952 20.36 2.387 2.53 5.658 3.813 9.721 3.813.095 0 .19 0 .286-.002 5.5-.078 10.818-2.26 14.31-4.075 3.145-1.636 5.612-3.386 6.642-4.297 1.153 2.721 5.21 9.045 17.925 9.045 4.928 0 9.923-1.174 14.845-3.49 4.003-1.884 6.927-4.03 8.498-5.183.328-.242.644-.474.846-.608.187.322.253.737.197 1.239-.054.487-.234 3.014 1.526 4.98 1.568 1.753 4.255 2.641 7.985 2.641 6.38 0 13.413-2.39 19.293-6.56 6.364-4.51 10.946-10.788 12.9-17.676l.503-1.772 1.314 1.29c1.34 1.313 2.977 2.472 4.87 3.444l.692.356-.11.772a29.068 29.068 0 00-.286 4.08v.009c.008.398.096 3.975.733 6.928.005.023.62 2.446 3.246 4.83 1.496 1.36 3.347 2.44 5.502 3.213 2.671.958 5.82 1.444 9.36 1.444 10.54 0 17.452-4.96 20.634-7.917l2.502-2.326-.686 3.347c-.174.845-.703 3.417-.727 4.296-.022.847.082 1.32.174 1.567l.095.255h10.498c.18 0 .364.003.543.006h.017c.169.003.343.006.516.006.703 0 1.154-.017 1.48-.257.384-.285.442-.772.474-1.332.91-15.987 6.43-23.725 8.763-26.31l.06-.067.085-.102c.603-.726 1.08-1.299 1.772-1.299.52 0 1.108.39 1.173 1.114l.004.043.013.042c.24.745 1.795 3.566 5.017 3.755.127.008.255.011.379.011.643 0 1.28-.092 2.067-.298l.02-.006c2.13-.686 4.211-1.825 6.363-3.484.44-.34.879-.72 1.34-1.162l2.765-2.647-.95 3.709a47.864 47.864 0 00-1.536 12.206c0 5.584 1.555 9.842 4.62 12.657 2.953 2.712 7.293 4.088 12.895 4.088h.046c.735 0 7.365-.1 13.837-3.594C305.734 77.696 310 69.647 310 58.314c0-3.951-1.007-6.976-2.993-8.993-1.988-2.017-4.971-3.04-8.867-3.04zM52.616 42a12.3 12.3 0 01-1.287-.058l-.018-.001a1.324 1.324 0 01-1.014-.557c-.645-.898-.204-2.292.972-6.017.18-.568.383-1.213.592-1.887 5.514-17.82 9.352-26.327 9.879-27.264.507-.901 1.284-1.401 1.798-1.732.134-.087.26-.168.348-.235A1.28 1.28 0 0164.682 4c1.022 0 4.018 1.129 6.311 3.738 1.633 1.858 3.462 5.116 2.905 10.088-.585 5.212-1.861 9.682-3.794 13.287-1.607 2.998-3.683 5.43-6.173 7.231C59.535 41.525 54.955 42 52.616 42zm54.47 24.939c-.48-2.07 1.184-6.912 1.755-8.098l.227-.473c1.59-3.33 4.254-8.904 9.297-9.338l.014-.002a4.38 4.38 0 01.509-.028c1.07 0 2.057.343 2.777.967.886.767 1.335 1.909 1.335 3.392 0 2.582-2.336 5.824-4.522 7.998-2.977 2.96-8.365 6.382-11.191 6.643-.047-.291-.12-.712-.201-1.061zm93.29-8.14l.234-.47c1.643-3.316 4.393-8.867 9.603-9.3l.014-.001c.089-.01.274-.028.526-.028 1.106 0 2.125.342 2.868.963.915.764 1.379 1.901 1.379 3.378 0 2.571-2.413 5.8-4.67 7.963-3.113 2.985-6.564 4.696-9.466 4.696a1.72 1.72 0 01-1.473-.817c-.91-1.431-.088-4.236.986-6.384zm94.722 6.17c-1.17 4.552-3.004 9.066-5.03 12.384-1.086 1.777-2.191 3.165-3.287 4.128-1.149 1.008-2.257 1.519-3.294 1.519-1.874 0-3.261-1.543-4.012-4.461-.74-2.877-.61-7.081.357-11.534.968-4.46 2.644-8.556 4.598-11.239 1.72-2.36 3.593-3.612 5.568-3.719l.033-.003c.142-.02.374-.044.668-.044.939 0 2.702.249 3.963 1.914 1.624 2.146 1.77 5.865.436 11.054z" fill="#9F9E97" fill-rule="evenodd"/></svg>